<?xml version="1.0" encoding="UTF-8"?>
<svg id="Layer_1" data-name="Layer 1" xmlns="http://www.w3.org/2000/svg" viewBox="0 0 573.29 150">
  <defs>
    <style>
      .cls-1 {
        fill: #fff;
      }
    </style>
  </defs>
  <path class="cls-1" d="m125.1,125.1h-24.9v24.9H25.2v-24.9H0V24.9h25.2V0h75v24.9h24.9v50.1H25.2v50.1h75v-25.2h24.9v25.2Zm-24.9-75v-25.2H25.2v25.2h75Z"/>
  <path class="cls-1" d="m274.5,125.1h-24.9v24.9h-75v-24.9h-25.2V24.9h25.2V0h75v24.9h24.9v25.2h-24.9v-25.2h-75v100.2h75v-25.2h24.9v25.2Z"/>
  <path class="cls-1" d="m423.9,125.1h-24.9v24.9h-75v-24.9h-25.2V24.9h25.2V0h75v24.9h24.9v25.2h-24.9v-25.2h-75v100.2h75v-25.2h24.9v25.2Z"/>
  <path class="cls-1" d="m573.29,125.1h-24.9v24.9h-75v-24.9h-25.2V24.9h25.2V0h75v24.9h24.9v50.1h-99.9v50.1h75v-25.2h24.9v25.2Zm-24.9-75v-25.2h-75v25.2h75Z"/>
</svg>